<svg height="512" viewBox="0 0 32 32" width="512" xmlns="http://www.w3.org/2000/svg"><g id="project_management" data-name="project management"><circle cx="9" cy="16" r="1.484"/><path d="m16.8389 13.8623-.8257-.2065a7.4048 7.4048 0 0 0 -.3965-.9566l.4375-.73a1.5322 1.5322 0 0 0 -.2305-1.8735l-.92-.92a1.531 1.531 0 0 0 -1.872-.2295l-.73.4375a7.4048 7.4048 0 0 0 -.9566-.3965l-.2065-.8247a1.53 1.53 0 0 0 -1.4886-1.1625h-1.3a1.53 1.53 0 0 0 -1.4877 1.1611l-.2065.8257a7.4048 7.4048 0 0 0 -.9566.3965l-.73-.4375a1.5329 1.5329 0 0 0 -1.8735.23l-.92.92a1.5313 1.5313 0 0 0 -.23 1.8721l.4375.73a7.4048 7.4048 0 0 0 -.3965.9566l-.8247.2065a1.53 1.53 0 0 0 -1.162 1.489v1.3a1.53 1.53 0 0 0 1.1611 1.4873l.8257.2065a7.4048 7.4048 0 0 0 .3965.9566l-.4375.73a1.5322 1.5322 0 0 0 .23 1.8735l.92.92a1.5287 1.5287 0 0 0 1.8721.23l.73-.4375a7.4048 7.4048 0 0 0 .9566.3965l.2065.8247a1.53 1.53 0 0 0 1.489 1.1624h1.3a1.53 1.53 0 0 0 1.4873-1.1611l.2065-.8257a7.4048 7.4048 0 0 0 .9566-.3965l.73.4375a1.5352 1.5352 0 0 0 1.8735-.2305l.92-.92a1.5311 1.5311 0 0 0 .23-1.872l-.4375-.7305a7.4048 7.4048 0 0 0 .3965-.9566l.8247-.2065a1.53 1.53 0 0 0 1.1624-1.4881v-1.3a1.53 1.53 0 0 0 -1.1611-1.4877zm-7.8389 5.6221a3.4844 3.4844 0 1 1 3.4844-3.4844 3.4882 3.4882 0 0 1 -3.4844 3.4844z"/><rect height="8" rx="2" width="8" x="24"/><rect height="8" rx="2" width="8" x="24" y="12"/><rect height="8" rx="2" width="8" x="24" y="24"/><path d="m25 17h-8a1 1 0 0 1 0-2h8a1 1 0 0 1 0 2z"/><path d="m21 17a1 1 0 0 1 -1-1v-11a2.002 2.002 0 0 1 2-2h3a1 1 0 0 1 0 2h-3v11a1 1 0 0 1 -1 1z"/><path d="m25 29h-3a2.002 2.002 0 0 1 -2-2v-11a1 1 0 0 1 2 0v11h3a1 1 0 0 1 0 2z"/></g></svg>